#!OML:ASF H:\IndianDance\Patient Classification 1\Patient 1\Session 1\dancer.ASF
:FULLY-SPECIFIED
:DEGREES
1524
root 7.76192 13.6713 2.45342 50.77 -82.8341 -38.1637
lowerback 12.9611 2.79353 -0.028181
upperback -0.113723 3.65202 -0.353457
thorax -7.37205 1.75802 -1.05279
lowerneck -20.1614 -1.47123 1.3904
upperneck 30.394 -3.68191 1.53402
head 13.6871 -1.38184 -0.313474
rclavicle 1.41137e-014 -1.15295e-014
rhumerus -34.909 12.7563 -66.8214
rradius 67.4936
rwrist -3.42074
rhand -17.8907 20.8248
rfingers 7.12502
rthumb 8.37582 -8.98915
lclavicle 1.41137e-014 -1.15295e-014
lhumerus -39.9588 1.37861 81.2053
lradius 62.2213
lwrist 2.47083
lhand -30.3657 21.5504
lfingers 7.12502
lthumb -3.67061 51.4986
rfemur -46.9537 -17.3022 12.9273
rtibia 66.1566
rfoot -24.7112 -4.02417
rtoes -19.164
lfemur -52.102 18.0588 -16.6275
ltibia 73.0573
lfoot -26.3438 4.71671
ltoes -4.55999
1525
root 7.77171 13.6289 2.44044 51.6422 -82.9898 -38.7439
lowerback 13.1661 2.81615 -0.0126504
upperback -0.0733984 3.68397 -0.322917
thorax -7.44517 1.77161 -1.04512
lowerneck -20.2079 -1.45058 1.389
upperneck 30.2376 -3.59613 1.42016
head 13.6264 -1.35952 -0.341952
rclavicle -2.42517e-014 9.93923e-015
rhumerus -35.3421 12.3088 -67.5485
rradius 67.5725
rwrist -2.86552
rhand -17.5906 20.7012
rfingers 7.12502
rthumb 8.6654 -9.10096
lclavicle -2.42517e-014 9.93923e-015
lhumerus -39.7839 1.34241 81.7908
lradius 62.357
lwrist 1.97718
lhand -30.1924 21.4345
lfingers 7.12502
lthumb -3.50328 51.3854
rfemur -47.821 -17.4347 13.0411
rtibia 66.8751
rfoot -24.9617 -3.82667
rtoes -19.1174
lfemur -52.8616 18.3464 -16.7752
ltibia 73.7027
lfoot -26.4768 4.59165
ltoes -4.56071
1526
root 7.78105 13.5857 2.42782 52.6126 -83.1341 -39.4328
lowerback 13.3756 2.83361 0.0161558
upperback -0.0310851 3.71165 -0.285093
thorax -7.51827 1.78268 -1.03663
lowerneck -20.2501 -1.42406 1.39639
upperneck 30.0652 -3.5005 1.29572
head 13.5578 -1.33348 -0.374078
rclavicle -3.19049e-014 1.74931e-014
rhumerus -35.7526 11.8366 -68.231
rradius 67.6568
rwrist -2.65393
rhand -17.2829 20.4893
rfingers 7.12502
rthumb 8.96238 -9.30031
lclavicle -3.19049e-014 1.74931e-014
lhumerus -39.6266 1.33384 82.3531
lradius 62.5331
lwrist 1.49307
lhand -30.0172 21.3234
lfingers 7.12502
lthumb -3.33411 51.2771
rfemur -48.6669 -17.5146 13.1537
rtibia 67.588
rfoot -25.2119 -3.64802
rtoes -19.065
lfemur -53.6098 18.6304 -16.9061
ltibia 74.3509
lfoot -26.6203 4.47598
ltoes -4.5704
1527
root 7.78983 13.5419 2.41542 53.6661 -83.2706 -40.2179
lowerback 13.5897 2.8465 0.0509358
upperback 0.0130913 3.73459 -0.242663
thorax -7.59191 1.79122 -1.02594
lowerneck -20.2844 -1.39036 1.4223
upperneck 29.8818 -3.39573 1.15598
head 13.4827 -1.30361 -0.41348
rclavicle -1.05356e-014 2.70347e-014
rhumerus -36.1343 11.3504 -68.8695
rradius 67.7337
rwrist -2.74462
rhand -16.9358 20.1867
rfingers 7.12502
rthumb 9.29726 -9.58831
lclavicle -1.05356e-014 2.70347e-014
lhumerus -39.4756 1.34457 82.8896
lradius 62.7291
lwrist 1.02388
lhand -29.8547 21.1211
lfingers 7.12502
lthumb -3.17713 51.0771
rfemur -49.4852 -17.5338 13.2569
rtibia 68.2923
rfoot -25.4603 -3.49301
rtoes -19.0056
lfemur -54.3393 18.9041 -17.0206
ltibia 74.9972
lfoot -26.7738 4.3724
ltoes -4.58569
1528
root 7.79813 13.4978 2.40309 54.7953 -83.4027 -41.0963
lowerback 13.814 2.85544 0.0860409
upperback 0.0577973 3.75257 -0.197717
thorax -7.67088 1.79721 -1.01238
lowerneck -20.294 -1.34678 1.46596
upperneck 29.684 -3.27974 1.00727
head 13.3964 -1.26855 -0.456953
rclavicle 1.81888e-014 -6.36111e-015
rhumerus -36.4824 10.8586 -69.4643
rradius 67.7866
rwrist -3.06604
rhand -16.5497 19.8084
rfingers 7.12502
rthumb 9.66987 -9.94962
lclavicle 1.81888e-014 -6.36111e-015
lhumerus -39.3254 1.36331 83.3972
lradius 62.927
lwrist 0.560877
lhand -29.7514 20.8786
lfingers 7.12502
lthumb -3.07734 50.8362
rfemur -50.2693 -17.485 13.3437
rtibia 68.9855
rfoot -25.7051 -3.37434
rtoes -18.9536
lfemur -55.0416 19.1631 -17.1179
ltibia 75.6374
lfoot -26.9338 4.2853
ltoes -4.61696
1529
root 7.80593 13.4535 2.39065 55.9656 -83.5339 -42.0352
lowerback 14.0486 2.8615 0.1121
upperback 0.106151 3.7653 -0.151754
thorax -7.75231 1.80085 -0.992042
lowerneck -20.2959 -1.29492 1.52989
upperneck 29.4835 -3.15633 0.847963
head 13.3075 -1.22954 -0.506503
rclavicle 7.65321e-015 -4.37326e-015
rhumerus -36.7822 10.3589 -70.0104
rradius 67.7962
rwrist -3.53165
rhand -16.1308 19.3846
rfingers 7.12502
rthumb 10.0739 -10.3542
lclavicle 7.65321e-015 -4.37326e-015
lhumerus -39.1578 1.38742 83.8752
lradius 63.0988
lwrist 0.0892498
lhand -29.7399 20.576
lfingers 7.12502
lthumb -3.06626 50.5337
rfemur -51.0137 -17.3635 13.4045
rtibia 69.6663
rfoot -25.9445 -3.29827
rtoes -18.9041
lfemur -55.7111 19.3988 -17.2003
ltibia 76.2687
lfoot -27.096 4.22
ltoes -4.66055
